<svg width="14" height="14" viewBox="0 0 14 14" fill="none" xmlns="http://www.w3.org/2000/svg">
<path fill-rule="evenodd" clip-rule="evenodd" d="M7 14C8.85652 14 10.637 13.2625 11.9497 11.9497C13.2625 10.637 14 8.85652 14 7C14 5.14348 13.2625 3.36301 11.9497 2.05025C10.637 0.737498 8.85652 0 7 0C5.14348 0 3.36301 0.737498 2.05025 2.05025C0.737498 3.36301 0 5.14348 0 7C0 8.85652 0.737498 10.637 2.05025 11.9497C3.36301 13.2625 5.14348 14 7 14ZM5.5 9.375C5.41792 9.375 5.33665 9.39117 5.26082 9.42258C5.18499 9.45398 5.11609 9.50002 5.05806 9.55806C5.00002 9.61609 4.95398 9.68499 4.92258 9.76082C4.89117 9.83665 4.875 9.91792 4.875 10C4.875 10.0821 4.89117 10.1633 4.92258 10.2392C4.95398 10.315 5.00002 10.3839 5.05806 10.4419C5.11609 10.5 5.18499 10.546 5.26082 10.5774C5.33665 10.6088 5.41792 10.625 5.5 10.625H8.5C8.58208 10.625 8.66335 10.6088 8.73918 10.5774C8.81501 10.546 8.88391 10.5 8.94194 10.4419C8.99998 10.3839 9.04602 10.315 9.07742 10.2392C9.10883 10.1633 9.125 10.0821 9.125 10C9.125 9.91792 9.10883 9.83665 9.07742 9.76082C9.04602 9.68499 8.99998 9.61609 8.94194 9.55806C8.88391 9.50002 8.81501 9.45398 8.73918 9.42258C8.66335 9.39117 8.58208 9.375 8.5 9.375H7.625V6.5C7.625 6.33424 7.55915 6.17527 7.44194 6.05806C7.32473 5.94085 7.16576 5.875 7 5.875H6C5.83424 5.875 5.67527 5.94085 5.55806 6.05806C5.44085 6.17527 5.375 6.33424 5.375 6.5C5.375 6.66576 5.44085 6.82473 5.55806 6.94194C5.67527 7.05915 5.83424 7.125 6 7.125H6.375V9.375H5.5ZM8 4C8 4.26522 7.89464 4.51957 7.70711 4.70711C7.51957 4.89464 7.26522 5 7 5C6.73478 5 6.48043 4.89464 6.29289 4.70711C6.10536 4.51957 6 4.26522 6 4C6 3.73478 6.10536 3.48043 6.29289 3.29289C6.48043 3.10536 6.73478 3 7 3C7.26522 3 7.51957 3.10536 7.70711 3.29289C7.89464 3.48043 8 3.73478 8 4Z" fill="#B7B1A1"/>
</svg>
