<svg  viewBox="0 0 44 39" fill="none" xmlns="http://www.w3.org/2000/svg">
<path d="M43.0817 1.36313C42.8978 0.952275 42.6218 0.608162 42.2835 0.367934C41.9452 0.127705 41.5574 0.000483937 41.162 0H2.16203C1.76736 0.0019135 1.3806 0.130074 1.04334 0.370699C0.706083 0.611323 0.431089 0.955308 0.247932 1.36566C0.064775 1.77601 -0.0196152 2.23721 0.00383673 2.69965C0.0272886 3.16208 0.157695 3.60827 0.381033 3.99022L19.881 37.0513C20.0798 37.3902 20.3458 37.6673 20.656 37.8587C20.9663 38.0501 21.3115 38.1501 21.662 38.1501C22.0125 38.1501 22.3578 38.0501 22.668 37.8587C22.9783 37.6673 23.2443 37.3902 23.443 37.0513L42.943 3.99022C43.1686 3.60905 43.3007 3.16261 43.3252 2.69943C43.3496 2.23625 43.2654 1.77406 43.0817 1.36313ZM21.662 31.1359L6.29603 5.08633H37.028L21.662 31.1359Z" fill="#EBE5D4"/>
</svg>
