<svg width="19" height="19" viewBox="0 0 19 19" fill="none" xmlns="http://www.w3.org/2000/svg">
<path d="M10.4901 0.428134C9.90314 -0.142711 8.94997 -0.142711 8.36304 0.428134L0.850353 7.73495C0.263424 8.30579 0.263424 9.23284 0.850353 9.80369C1.43728 10.3745 2.39045 10.3745 2.97738 9.80369L9.42891 3.52896L15.8804 9.79912C16.4674 10.37 17.4205 10.37 18.0075 9.79912C18.5944 9.22828 18.5944 8.30122 18.0075 7.73038L10.4948 0.423567L10.4901 0.428134ZM18.0028 16.5031L10.4901 9.19631C9.90314 8.62547 8.94997 8.62547 8.36304 9.19631L0.850353 16.5031C0.263424 17.074 0.263424 18.001 0.850353 18.5719C1.43728 19.1427 2.39045 19.1427 2.97738 18.5719L9.42891 12.2971L15.8804 18.5673C16.4674 19.1381 17.4205 19.1381 18.0075 18.5673C18.5944 17.9965 18.5944 17.0694 18.0075 16.4986L18.0028 16.5031Z" fill="#B7B1A1"/>
</svg>
