<svg width="14" height="14" viewBox="0 0 14 14" fill="none" xmlns="http://www.w3.org/2000/svg">
<path d="M1.34043 11.0641H2.68087V13.7992L6.09964 11.0641H9.38303C10.1223 11.0641 10.7235 10.4629 10.7235 9.72365V4.36192C10.7235 3.62267 10.1223 3.02148 9.38303 3.02148H1.34043C0.601184 3.02148 0 3.62267 0 4.36192V9.72365C0 10.4629 0.601184 11.0641 1.34043 11.0641Z" fill="#B7B1A1"/>
<path d="M12.6604 0.339844H4.61778C3.87853 0.339844 3.27734 0.941028 3.27734 1.68028H11.3199C12.0592 1.68028 12.6604 2.28146 12.6604 3.02071V8.38244C13.3996 8.38244 14.0008 7.78126 14.0008 7.04201V1.68028C14.0008 0.941028 13.3996 0.339844 12.6604 0.339844Z" fill="#B7B1A1"/>
</svg>
