<svg width="32" height="25" viewBox="0 0 32 25" fill="none" xmlns="http://www.w3.org/2000/svg">
<path d="M26.7661 0.798054L24.7189 2.39748L16.002 8.87515L7.28512 2.3335L5.23785 0.734077C4.75555 0.335092 4.1668 0.0863735 3.54452 0.0187338C2.92225 -0.0489059 2.2938 0.0675063 1.73704 0.353548C1.18028 0.639589 0.719679 1.08269 0.412291 1.62795C0.104903 2.17322 -0.0357585 2.79668 0.00773225 3.42111V21.9585C0.00773225 22.5354 0.236906 23.0886 0.644839 23.4966C1.05277 23.9045 1.60605 24.1337 2.18295 24.1337H7.28512V11.7861L16.002 18.3278L24.7189 11.7861V24.1337H29.821C30.3979 24.1337 30.9512 23.9045 31.3591 23.4966C31.7671 23.0886 31.9962 22.5354 31.9962 21.9585V3.42111C32.0263 2.80207 31.8758 2.18764 31.5632 1.6525C31.2506 1.11737 30.7892 0.684569 30.2352 0.406723C29.6812 0.128878 29.0584 0.017949 28.4426 0.087421C27.8267 0.156893 27.2443 0.403774 26.7661 0.798054Z" fill="#EBE5D4"/>
</svg>
