<svg width="33" height="33" viewBox="0 0 33 33" fill="none" xmlns="http://www.w3.org/2000/svg">
<path d="M32.061 9.46068C32.0431 8.11483 31.7906 6.78236 31.3149 5.52288C30.9024 4.46051 30.2724 3.49569 29.4651 2.69006C28.6578 1.88443 27.691 1.25571 26.6264 0.84407C25.3805 0.377356 24.0643 0.124996 22.7338 0.0977345C21.0208 0.021324 20.4777 0 16.1292 0C11.7808 0 11.2234 1.19156e-07 9.52285 0.0977345C8.19296 0.125196 6.87736 0.377553 5.63204 0.84407C4.56729 1.25542 3.60031 1.88404 2.79297 2.68971C1.98562 3.49537 1.35569 4.46034 0.943484 5.52288C0.474862 6.76523 0.222524 8.07838 0.197375 9.4056C0.120805 11.1168 0.0976562 11.6588 0.0976562 15.9982C0.0976562 20.3376 0.0976562 20.892 0.197375 22.5908C0.224085 23.92 0.475162 25.2315 0.943484 26.4771C1.35639 27.5393 1.98678 28.5039 2.7944 29.3092C3.60201 30.1146 4.56908 30.7429 5.63382 31.1542C6.87573 31.6396 8.19156 31.91 9.52463 31.9538C11.2394 32.0302 11.7825 32.0533 16.131 32.0533C20.4794 32.0533 21.0368 32.0533 22.7374 31.9538C24.0678 31.9277 25.3841 31.6759 26.6299 31.2092C27.6942 30.7971 28.6608 30.1682 29.4681 29.3627C30.2753 28.5571 30.9055 27.5925 31.3185 26.5304C31.7868 25.2865 32.0379 23.9751 32.0646 22.6442C32.1412 20.9347 32.1643 20.3927 32.1643 16.0515C32.1608 11.7121 32.1608 11.1613 32.061 9.46068ZM16.1185 24.2044C11.5706 24.2044 7.88639 20.5278 7.88639 15.9893C7.88639 11.4509 11.5706 7.77432 16.1185 7.77432C18.3018 7.77432 20.3957 8.63983 21.9395 10.1804C23.4833 11.7211 24.3507 13.8106 24.3507 15.9893C24.3507 18.1681 23.4833 20.2576 21.9395 21.7982C20.3957 23.3388 18.3018 24.2044 16.1185 24.2044ZM24.6783 9.38605C24.4262 9.38628 24.1764 9.3369 23.9434 9.24071C23.7104 9.14453 23.4987 9.00343 23.3204 8.82551C23.1421 8.64758 23.0007 8.43632 22.9044 8.2038C22.808 7.97128 22.7585 7.72208 22.7587 7.47046C22.7587 7.21902 22.8083 6.97004 22.9048 6.73773C23.0012 6.50543 23.1425 6.29435 23.3207 6.11656C23.4989 5.93876 23.7104 5.79772 23.9432 5.7015C24.1759 5.60528 24.4254 5.55575 24.6774 5.55575C24.9294 5.55575 25.1789 5.60528 25.4117 5.7015C25.6445 5.79772 25.856 5.93876 26.0341 6.11656C26.2123 6.29435 26.3536 6.50543 26.4501 6.73773C26.5465 6.97004 26.5961 7.21902 26.5961 7.47046C26.5961 8.52954 25.7378 9.38605 24.6783 9.38605Z" fill="#EBE5D4"/>
<path d="M16.1189 21.3249C19.0722 21.3249 21.4663 18.9358 21.4663 15.9886C21.4663 13.0415 19.0722 10.6523 16.1189 10.6523C13.1656 10.6523 10.7715 13.0415 10.7715 15.9886C10.7715 18.9358 13.1656 21.3249 16.1189 21.3249Z" fill="#EBE5D4"/>
</svg>
