<svg width="32" height="32" viewBox="0 0 32 32" fill="none" xmlns="http://www.w3.org/2000/svg">
<path d="M30.2222 0H1.77778C1.30628 0 0.854097 0.187301 0.520699 0.520699C0.187301 0.854097 0 1.30628 0 1.77778V30.2222C0 30.6937 0.187301 31.1459 0.520699 31.4793C0.854097 31.8127 1.30628 32 1.77778 32H30.2222C30.6937 32 31.1459 31.8127 31.4793 31.4793C31.8127 31.1459 32 30.6937 32 30.2222V1.77778C32 1.30628 31.8127 0.854097 31.4793 0.520699C31.1459 0.187301 30.6937 0 30.2222 0ZM9.49156 27.2658H4.74133V11.9947H9.49156V27.2658ZM7.11644 9.90933C6.38657 9.90933 5.68659 9.61939 5.17049 9.10329C4.65439 8.58719 4.36444 7.88721 4.36444 7.15733C4.36444 6.42746 4.65439 5.72748 5.17049 5.21138C5.68659 4.69528 6.38657 4.40533 7.11644 4.40533C7.84632 4.40533 8.5463 4.69528 9.0624 5.21138C9.5785 5.72748 9.86844 6.42746 9.86844 7.15733C9.86844 7.88721 9.5785 8.58719 9.0624 9.10329C8.5463 9.61939 7.84632 9.90933 7.11644 9.90933ZM27.2676 27.2658H22.5227V19.84C22.5227 18.0693 22.4907 15.792 20.0551 15.792C17.584 15.792 17.2089 17.7227 17.2089 19.7156V27.2676H12.4676V11.9964H17.0187V14.0836H17.0844C17.7156 12.8836 19.2658 11.6178 21.5716 11.6178C26.3787 11.6178 27.2658 14.7787 27.2658 18.8924L27.2676 27.2658Z" fill="#EBE5D4"/>
</svg>
