<svg width="48" height="44" viewBox="0 0 48 44" fill="none" xmlns="http://www.w3.org/2000/svg">
<path d="M44.9938 10.3732C44.4539 9.40583 43.854 8.47597 43.1941 7.59861C42.8491 7.14118 42.4892 6.69125 42.1143 6.25632C40.8919 4.84654 39.5047 3.58674 37.9899 2.49941C37.3525 2.04198 36.6851 1.60705 35.9952 1.20961C35.3578 0.842165 34.7054 0.504718 34.038 0.197266C32.1633 2.88934 29.2313 4.78655 25.8418 5.30397C27.2441 5.45394 28.6014 5.78389 29.8762 6.26382C30.8435 6.62376 31.7734 7.07369 32.6507 7.60611C33.873 8.34099 34.9979 9.23335 35.9952 10.2532C36.7301 11.0031 37.3975 11.8279 37.9899 12.7053C38.3123 13.1852 38.6048 13.6877 38.8823 14.2051C40.1046 16.5372 40.802 19.1918 40.802 22.0039C40.802 24.8159 40.1046 27.4705 38.8823 29.8026C38.6123 30.3201 38.3123 30.8225 37.9899 31.3024C37.405 32.1798 36.7376 33.0046 35.9952 33.7545C34.8554 32.5922 33.8805 31.2574 33.1157 29.8026C31.5409 31.6399 29.4187 33.0046 26.9966 33.627C27.1316 33.8745 27.2741 34.1145 27.4166 34.3544C28.1364 35.5542 28.9688 36.6941 29.8837 37.7439C31.6234 39.7461 33.6931 41.4558 36.0027 42.7906C36.6926 42.3932 37.3525 41.9657 37.9974 41.5008C39.5122 40.4135 40.8994 39.1462 42.1218 37.7439C42.4967 37.309 42.8566 36.8665 43.2016 36.4016C43.8615 35.5242 44.4614 34.5944 45.0013 33.627C46.9135 30.1851 48.0008 26.2257 48.0008 22.0039C48.0008 17.782 46.9135 13.8301 45.0013 10.3807L44.9938 10.3732Z" fill="#F16855"/>
<path d="M10.0034 12.6975C10.5883 11.8201 11.2557 10.9953 11.9981 10.2454C12.9955 9.23304 14.1128 8.34068 15.3426 7.5983C16.22 7.07338 17.1498 6.62345 18.1172 6.25601C19.3995 5.77608 20.7493 5.45363 22.1515 5.29616C18.7621 4.78623 15.8375 2.88153 13.9553 0.189453C13.2879 0.496905 12.6355 0.834352 11.9981 1.20179C11.3082 1.59923 10.6483 2.02667 10.0034 2.49159C8.48867 3.57892 7.10139 4.84623 5.87908 6.24851C5.50414 6.68344 5.1442 7.12587 4.79925 7.5908C4.13935 8.46816 3.53945 9.39801 2.99953 10.3654C1.08733 13.8223 0 17.7817 0 21.996C0 26.2104 1.08733 30.1698 2.99953 33.6192C3.53945 34.5866 4.13935 35.5164 4.79925 36.3938C5.1442 36.8512 5.50414 37.3012 5.87908 37.7361C7.10139 39.1459 8.48867 40.4057 10.0034 41.493C10.6408 41.9504 11.3082 42.3854 11.9981 42.7828C12.6355 43.1502 13.2879 43.4877 13.9553 43.7951C15.83 41.1031 18.7621 39.2059 22.1515 38.6884C20.7493 38.5385 19.392 38.2085 18.1172 37.7286C17.1498 37.3686 16.22 36.9187 15.3426 36.3863C14.1203 35.6514 12.9955 34.7591 11.9981 33.7392C11.2632 32.9893 10.5958 32.1645 10.0034 31.2871C9.68099 30.8072 9.38853 30.3048 9.11108 29.7873C7.88877 27.4552 7.19138 24.8006 7.19138 21.9885C7.19138 19.1765 7.88877 16.5219 9.11108 14.1898C9.38103 13.6723 9.68099 13.1699 10.0034 12.69V12.6975Z" fill="#F16855"/>
</svg>
