<svg width="64" height="60" viewBox="0 0 64 60" fill="none" xmlns="http://www.w3.org/2000/svg">
<path d="M59.9911 14.4976C59.2712 13.2078 58.4713 11.968 57.5915 10.7981C57.1315 10.1882 56.6516 9.58833 56.1517 9.00842C54.5219 7.12872 52.6722 5.44898 50.6525 3.99921C49.8027 3.3893 48.9128 2.80939 47.993 2.27948C47.1431 1.78955 46.2732 1.33962 45.3834 0.929688C42.8838 4.51913 38.9744 7.04873 34.4551 7.73862C36.3248 7.93859 38.1345 8.37852 39.8342 9.01842C41.124 9.49835 42.3638 10.0983 43.5337 10.8081C45.1634 11.788 46.6632 12.9778 47.993 14.3376C48.9728 15.3374 49.8627 16.4373 50.6525 17.6071C51.0825 18.247 51.4724 18.9169 51.8424 19.6068C53.4721 22.7163 54.402 26.2557 54.402 30.0051C54.402 33.7546 53.4721 37.294 51.8424 40.4035C51.4824 41.0934 51.0825 41.7633 50.6525 42.4032C49.8727 43.573 48.9828 44.6729 47.993 45.6727C46.4732 44.1229 45.1734 42.3432 44.1536 40.4035C42.0539 42.8531 39.2243 44.6728 35.9948 45.5027C36.1748 45.8327 36.3648 46.1526 36.5548 46.4726C37.5146 48.0723 38.6244 49.5921 39.8442 50.9919C42.1639 53.6614 44.9234 55.9411 48.003 57.7208C48.9228 57.1909 49.8027 56.621 50.6625 56.0011C52.6822 54.5513 54.5319 52.8616 56.1617 50.9919C56.6616 50.412 57.1415 49.822 57.6015 49.2021C58.4813 48.0323 59.2812 46.7925 60.0011 45.5027C62.5507 40.9134 64.0005 35.6343 64.0005 30.0051C64.0005 24.376 62.5507 19.1068 60.0011 14.5076L59.9911 14.4976Z" fill="#EBE5D4"/>
<path d="M13.3379 17.5973C14.1178 16.4275 15.0077 15.3277 15.9975 14.3278C17.3273 12.978 18.8171 11.7882 20.4568 10.7984C21.6266 10.0985 22.8664 9.49858 24.1562 9.00866C25.866 8.36876 27.6657 7.93882 29.5354 7.72886C25.0161 7.04896 21.1167 4.50936 18.6071 0.919922C17.7172 1.32986 16.8474 1.77979 15.9975 2.26971C15.0776 2.79963 14.1978 3.36954 13.3379 3.98944C11.3182 5.43922 9.46852 7.12895 7.83877 8.99866C7.33885 9.57857 6.85893 10.1685 6.399 10.7884C5.51914 11.9582 4.71926 13.198 3.99937 14.4878C1.44977 19.0971 0 24.3763 0 29.9954C0 35.6145 1.44977 40.8937 3.99937 45.493C4.71926 46.7828 5.51914 48.0226 6.399 49.1924C6.85893 49.8023 7.33885 50.4022 7.83877 50.9821C9.46852 52.8618 11.3182 54.5415 13.3379 55.9913C14.1878 56.6012 15.0776 57.1811 15.9975 57.711C16.8474 58.201 17.7172 58.6509 18.6071 59.0608C21.1067 55.4714 25.0161 52.9418 29.5354 52.2519C27.6657 52.0519 25.856 51.612 24.1562 50.9721C22.8664 50.4922 21.6266 49.8923 20.4568 49.1824C18.8271 48.2025 17.3273 47.0127 15.9975 45.6529C15.0177 44.6531 14.1278 43.5533 13.3379 42.3834C12.908 41.7435 12.518 41.0736 12.1481 40.3838C10.5184 37.2742 9.5885 33.7348 9.5885 29.9854C9.5885 26.236 10.5184 22.6965 12.1481 19.587C12.508 18.8971 12.908 18.2272 13.3379 17.5873V17.5973Z" fill="#EBE5D4"/>
</svg>
