<svg width="14" height="11" viewBox="0 0 14 11" fill="none" xmlns="http://www.w3.org/2000/svg">
<path d="M13.9902 3.47603C13.9886 3.45449 13.9868 3.43298 13.9846 3.41149C13.9225 2.4869 13.5287 1.62117 12.8823 0.988321C12.2359 0.355467 11.3847 0.00238518 10.5 3.72709e-05H3.5C2.60283 -0.00421066 1.73878 0.354804 1.08829 1.00211C0.437795 1.64942 0.0511516 2.53496 0.00910001 3.47383C0.00210001 3.53176 0 3.59189 0 3.65936V8.43334C0 9.11167 0.2611 9.77387 0.7154 10.2491C1.17657 10.729 1.79994 10.9989 2.45 11C3.71 11 4.2028 10.2667 4.9 8.80001C5.0022 8.58587 5.5944 7.33335 7 7.33335C8.3972 7.33335 8.9971 8.58514 9.1 8.80001C9.8028 10.2667 10.29 11 11.55 11C12.1975 11 12.8296 10.7265 13.2832 10.2505C13.7414 9.76741 13.999 9.11436 14 8.43334V3.66669C14 3.59703 13.9972 3.53469 13.9902 3.47603ZM3.5 5.15609C3.31356 5.1605 3.12816 5.12585 2.95468 5.05417C2.7812 4.98249 2.62314 4.87523 2.48978 4.73867C2.35642 4.60212 2.25044 4.43902 2.17807 4.25897C2.1057 4.07892 2.0684 3.88553 2.06835 3.69017C2.0683 3.4948 2.10551 3.3014 2.1778 3.12131C2.25008 2.94121 2.35598 2.77807 2.48928 2.64144C2.62258 2.50481 2.78059 2.39747 2.95403 2.32569C3.12748 2.25392 3.31286 2.21918 3.4993 2.2235C3.86509 2.23197 4.21318 2.39013 4.46906 2.66411C4.72493 2.93809 4.86826 3.30613 4.86835 3.68943C4.86844 4.07274 4.72529 4.44085 4.46955 4.71496C4.2138 4.98908 3.86579 5.14742 3.5 5.15609ZM10.5 1.48943C10.6857 1.48943 10.8637 1.56669 10.995 1.70422C11.1263 1.84175 11.2 2.02827 11.2 2.22276C11.2 2.41725 11.1263 2.60378 10.995 2.74131C10.8637 2.87883 10.6857 2.95609 10.5 2.95609C10.3143 2.95609 10.1363 2.87883 10.005 2.74131C9.87375 2.60378 9.8 2.41725 9.8 2.22276C9.8 2.02827 9.87375 1.84175 10.005 1.70422C10.1363 1.56669 10.3143 1.48943 10.5 1.48943ZM9.1 4.42276C8.91435 4.42276 8.7363 4.34549 8.60503 4.20797C8.47375 4.07044 8.4 3.88392 8.4 3.68943C8.4 3.49493 8.47375 3.30841 8.60503 3.17088C8.7363 3.03336 8.91435 2.95609 9.1 2.95609C9.28565 2.95609 9.4637 3.03336 9.59497 3.17088C9.72625 3.30841 9.8 3.49493 9.8 3.68943C9.8 3.88392 9.72625 4.07044 9.59497 4.20797C9.4637 4.34549 9.28565 4.42276 9.1 4.42276ZM10.5 5.88942C10.3143 5.88942 10.1363 5.81216 10.005 5.67463C9.87375 5.5371 9.8 5.35058 9.8 5.15609C9.8 4.9616 9.87375 4.77507 10.005 4.63754C10.1363 4.50002 10.3143 4.42276 10.5 4.42276C10.6857 4.42276 10.8637 4.50002 10.995 4.63754C11.1263 4.77507 11.2 4.9616 11.2 5.15609C11.2 5.35058 11.1263 5.5371 10.995 5.67463C10.8637 5.81216 10.6857 5.88942 10.5 5.88942ZM11.9 4.42276C11.7143 4.42276 11.5363 4.34549 11.405 4.20797C11.2737 4.07044 11.2 3.88392 11.2 3.68943C11.2 3.49493 11.2737 3.30841 11.405 3.17088C11.5363 3.03336 11.7143 2.95609 11.9 2.95609C12.0857 2.95609 12.2637 3.03336 12.395 3.17088C12.5263 3.30841 12.6 3.49493 12.6 3.68943C12.6 3.88392 12.5263 4.07044 12.395 4.20797C12.2637 4.34549 12.0857 4.42276 11.9 4.42276Z" fill="#B7B1A1"/>
</svg>
