<svg width="14" height="13" viewBox="0 0 14 13" fill="none" xmlns="http://www.w3.org/2000/svg">
<path d="M12.25 13C12.7141 13 13.1592 12.8264 13.4874 12.5173C13.8156 12.2083 14 11.7892 14 11.3521V4.94366L8.75 -2.18271e-07H1.75C1.28587 -2.18271e-07 0.840752 0.173616 0.512563 0.482655C0.184374 0.791694 0 1.21084 0 1.64789L0 11.3521C0 11.7892 0.184374 12.2083 0.512563 12.5173C0.840752 12.8264 1.28587 13 1.75 13H12.25ZM7.875 1.64789L12.25 5.76761H7.875V1.64789ZM2.625 4.94366H5.25V6.59155H2.625V4.94366ZM2.625 8.23944H11.375V9.88732H2.625V8.23944Z" fill="#B7B1A1"/>
</svg>
