<svg width="64" height="61" viewBox="0 0 64 61" fill="none" xmlns="http://www.w3.org/2000/svg">
<path d="M36.1617 43.252C39.3743 42.7925 42.2691 40.9665 44.0695 38.1979L63.0977 8.7335C64.5804 6.43619 64.2038 3.39668 62.2033 1.52349C60.2029 -0.349696 57.1551 -0.514631 54.9663 1.13472L27.1125 22.0579C24.2882 24.1785 22.6173 27.4889 22.5937 31.0233L36.1617 43.252ZM33.8553 46.2444L20.2049 33.945C13.1679 34.2041 7.53124 40.0122 7.53124 47.128C7.53124 47.5874 7.55478 48.0469 7.60185 48.4946C7.81366 50.5563 6.40155 52.7829 4.33046 52.7829H3.76562C1.68276 52.7829 0 54.4676 0 56.5528C0 58.6381 1.68276 60.3228 3.76562 60.3228H20.7109C27.995 60.3228 33.8906 54.4204 33.8906 47.128C33.8906 46.8334 33.8788 46.5389 33.867 46.2444H33.8553Z" fill="#EBE5D4"/>
</svg>
