<svg width="64" height="45" viewBox="0 0 64 45" fill="none" xmlns="http://www.w3.org/2000/svg">
<path d="M38.4 6.3876V28.7442H6.4V6.3876H38.4ZM6.4 0C2.87 0 0 2.86444 0 6.3876V28.7442C0 32.2673 2.87 35.1318 6.4 35.1318H18.13L17.06 38.3256H9.6C7.83 38.3256 6.4 39.7528 6.4 41.5194C6.4 43.2859 7.83 44.7132 9.6 44.7132H35.2C36.97 44.7132 38.4 43.2859 38.4 41.5194C38.4 39.7528 36.97 38.3256 35.2 38.3256H27.73L26.66 35.1318H38.4C41.93 35.1318 44.8 32.2673 44.8 28.7442V6.3876C44.8 2.86444 41.93 0 38.4 0H6.4ZM52.8 0C50.15 0 48 2.14583 48 4.7907V39.9225C48 42.5673 50.15 44.7132 52.8 44.7132H59.2C61.85 44.7132 64 42.5673 64 39.9225V4.7907C64 2.14583 61.85 0 59.2 0H52.8ZM54.4 6.3876H57.6C58.48 6.3876 59.2 7.1062 59.2 7.9845C59.2 8.86279 58.48 9.5814 57.6 9.5814H54.4C53.52 9.5814 52.8 8.86279 52.8 7.9845C52.8 7.1062 53.52 6.3876 54.4 6.3876ZM52.8 14.3721C52.8 13.4938 53.52 12.7752 54.4 12.7752H57.6C58.48 12.7752 59.2 13.4938 59.2 14.3721C59.2 15.2504 58.48 15.969 57.6 15.969H54.4C53.52 15.969 52.8 15.2504 52.8 14.3721ZM56 30.3411C56.8487 30.3411 57.6626 30.6776 58.2627 31.2765C58.8629 31.8755 59.2 32.6878 59.2 33.5349C59.2 34.3819 58.8629 35.1943 58.2627 35.7932C57.6626 36.3922 56.8487 36.7287 56 36.7287C55.1513 36.7287 54.3374 36.3922 53.7373 35.7932C53.1371 35.1943 52.8 34.3819 52.8 33.5349C52.8 32.6878 53.1371 31.8755 53.7373 31.2765C54.3374 30.6776 55.1513 30.3411 56 30.3411Z" fill="#EBE5D4"/>
</svg>
