<svg width="64" height="64" viewBox="0 0 64 64" fill="none" xmlns="http://www.w3.org/2000/svg">
<path d="M30.4307 0.318781L2.43397 12.32C0.68418 13.07 -0.290705 14.9452 0.0967496 16.7954C0.484204 18.6456 2.10901 19.9957 4.00879 19.9957V20.9958C4.00879 22.6585 5.34613 23.9961 7.00844 23.9961H57.0026C58.6649 23.9961 60.0022 22.6585 60.0022 20.9958V19.9957C61.902 19.9957 63.5393 18.6581 63.9143 16.7954C64.2892 14.9327 63.3143 13.0575 61.577 12.32L33.5803 0.318781C32.5804 -0.10626 31.4306 -0.10626 30.4307 0.318781ZM16.0074 27.9965H8.00832V52.5364C7.93333 52.5739 7.85834 52.6239 7.78335 52.6739L1.78405 56.6743C0.321723 57.6494 -0.340699 59.4746 0.171741 61.1622C0.684181 62.8499 2.2465 64 4.00879 64H60.0022C61.7645 64 63.3143 62.8499 63.8268 61.1622C64.3392 59.4746 63.6893 57.6494 62.2145 56.6743L56.2152 52.6739C56.1402 52.6239 56.0652 52.5864 55.9902 52.5364V27.9965H48.0036V51.9988H43.0042V27.9965H35.0051V51.9988H29.0059V27.9965H21.0068V51.9988H16.0074V27.9965ZM32.0055 7.99453C33.0662 7.99453 34.0835 8.416 34.8336 9.16622C35.5837 9.91644 36.005 10.934 36.005 11.9949C36.005 13.0559 35.5837 14.0734 34.8336 14.8236C34.0835 15.5738 33.0662 15.9953 32.0055 15.9953C30.9448 15.9953 29.9275 15.5738 29.1774 14.8236C28.4274 14.0734 28.006 13.0559 28.006 11.9949C28.006 10.934 28.4274 9.91644 29.1774 9.16622C29.9275 8.416 30.9448 7.99453 32.0055 7.99453Z" fill="#EBE5D4"/>
</svg>
